<svg xmlns="http://www.w3.org/2000/svg" width="600" height="300" viewBox="0 0 600 300">
  <rect fill="#0a0e17" width="600" height="300"/>
  <rect fill="#f59e0b" x="0" y="0" width="600" height="4" opacity="0.8"/>
  <rect fill="#111827" x="20" y="20" width="160" height="260" rx="12"/>
  <rect fill="#111827" x="200" y="20" width="380" height="260" rx="12"/>
  <rect fill="#f59e0b" x="40" y="40" width="120" height="12" rx="6" opacity="0.3"/>
  <rect fill="#94a3b8" x="40" y="70" width="120" height="8" rx="4" opacity="0.15"/>
  <rect fill="#94a3b8" x="40" y="90" width="100" height="8" rx="4" opacity="0.15"/>
  <rect fill="#94a3b8" x="40" y="110" width="110" height="8" rx="4" opacity="0.15"/>
  <rect fill="#94a3b8" x="40" y="130" width="90" height="8" rx="4" opacity="0.15"/>
  <rect fill="#94a3b8" x="40" y="150" width="120" height="8" rx="4" opacity="0.15"/>
  <circle cx="390" cy="140" r="60" fill="#f59e0b" opacity="0.1"/>
  <text x="390" y="135" text-anchor="middle" fill="#f59e0b" font-family="system-ui" font-size="22" font-weight="800">InfoPet</text>
  <text x="390" y="158" text-anchor="middle" fill="#94a3b8" font-family="system-ui" font-size="10">Panel de Gestión</text>
  <rect fill="#f59e0b" x="300" y="220" width="80" height="6" rx="3" opacity="0.3"/>
  <rect fill="#94a3b8" x="300" y="236" width="180" height="6" rx="3" opacity="0.2"/>
  <rect fill="#94a3b8" x="300" y="252" width="140" height="6" rx="3" opacity="0.2"/>
</svg>