<svg xmlns="http://www.w3.org/2000/svg" width="600" height="300" viewBox="0 0 600 300">
  <rect fill="#0a0e17" width="600" height="300"/>
  <rect fill="#8b5cf6" x="0" y="0" width="600" height="4" opacity="0.8"/>
  <rect fill="#111827" x="20" y="20" width="120" height="260" rx="12"/>
  <rect fill="#111827" x="160" y="20" width="420" height="260" rx="12"/>
  <rect fill="#8b5cf6" x="35" y="40" width="90" height="10" rx="5" opacity="0.3"/>
  <rect fill="#94a3b8" x="35" y="65" width="90" height="8" rx="4" opacity="0.15"/>
  <rect fill="#94a3b8" x="35" y="85" width="70" height="8" rx="4" opacity="0.15"/>
  <rect fill="#94a3b8" x="35" y="105" width="80" height="8" rx="4" opacity="0.15"/>
  <rect fill="#94a3b8" x="35" y="125" width="90" height="8" rx="4" opacity="0.15"/>
  <rect fill="#111827" x="180" y="40" width="185" height="100" rx="10" stroke="#8b5cf6" stroke-opacity="0.2" stroke-width="1"/>
  <rect fill="#111827" x="380" y="40" width="185" height="100" rx="10" stroke="#8b5cf6" stroke-opacity="0.2" stroke-width="1"/>
  <rect fill="#111827" x="180" y="160" width="185" height="100" rx="10" stroke="#8b5cf6" stroke-opacity="0.2" stroke-width="1"/>
  <rect fill="#111827" x="380" y="160" width="185" height="100" rx="10" stroke="#8b5cf6" stroke-opacity="0.2" stroke-width="1"/>
  <text x="272" y="95" text-anchor="middle" fill="#d97706" font-family="system-ui" font-size="14" font-weight="700">Claude</text>
  <text x="472" y="95" text-anchor="middle" fill="#f97316" font-family="system-ui" font-size="14" font-weight="700">Groq</text>
  <text x="272" y="215" text-anchor="middle" fill="#8b5cf6" font-family="system-ui" font-size="14" font-weight="700">Grok</text>
  <text x="472" y="215" text-anchor="middle" fill="#3b82f6" font-family="system-ui" font-size="14" font-weight="700">Gemini</text>
  <circle cx="272" cy="75" r="12" fill="#d97706" opacity="0.2"/>
  <circle cx="472" cy="75" r="12" fill="#f97316" opacity="0.2"/>
  <circle cx="272" cy="195" r="12" fill="#8b5cf6" opacity="0.2"/>
  <circle cx="472" cy="195" r="12" fill="#3b82f6" opacity="0.2"/>
</svg>