<svg xmlns="http://www.w3.org/2000/svg" width="600" height="300" viewBox="0 0 600 300">
  <rect fill="#0a0e17" width="600" height="300"/>
  <rect fill="#059669" x="0" y="0" width="600" height="4" opacity="0.8"/>
  <rect fill="#111827" x="20" y="20" width="260" height="260" rx="12"/>
  <rect fill="#111827" x="300" y="20" width="280" height="120" rx="12"/>
  <rect fill="#111827" x="300" y="160" width="280" height="120" rx="12"/>
  <circle cx="150" cy="130" r="40" fill="#059669" opacity="0.2"/>
  <text x="150" y="140" text-anchor="middle" fill="#059669" font-family="system-ui" font-size="28" font-weight="800">VOY</text>
  <text x="150" y="170" text-anchor="middle" fill="#94a3b8" font-family="system-ui" font-size="11">Marketplace de Servicios</text>
  <rect fill="#059669" x="320" y="40" width="100" height="8" rx="4" opacity="0.3"/>
  <rect fill="#94a3b8" x="320" y="58" width="200" height="6" rx="3" opacity="0.2"/>
  <rect fill="#94a3b8" x="320" y="74" width="160" height="6" rx="3" opacity="0.2"/>
  <rect fill="#059669" x="320" y="100" width="60" height="24" rx="6" opacity="0.15"/>
  <rect fill="#059669" x="390" y="100" width="60" height="24" rx="6" opacity="0.15"/>
  <rect fill="#94a3b8" x="320" y="180" width="240" height="6" rx="3" opacity="0.2"/>
  <rect fill="#94a3b8" x="320" y="196" width="200" height="6" rx="3" opacity="0.2"/>
  <rect fill="#94a3b8" x="320" y="212" width="220" height="6" rx="3" opacity="0.2"/>
  <rect fill="#94a3b8" x="320" y="240" width="180" height="6" rx="3" opacity="0.2"/>
</svg>